<svg width="20" height="21" viewBox="0 0 20 21" fill="none" xmlns="http://www.w3.org/2000/svg">
<path d="M11.705 2.36833L8.24831 2.36H8.24664C4.60164 2.36 1.74664 5.21583 1.74664 8.86167C1.74664 12.2767 4.40164 14.8667 7.96748 15.0033V18.1933C7.96748 18.2833 8.00414 18.4317 8.06748 18.5292C8.18581 18.7167 8.38748 18.8183 8.59414 18.8183C8.70914 18.8183 8.82498 18.7867 8.92914 18.72C9.14914 18.58 14.3233 15.27 15.6691 14.1317C17.2541 12.79 18.2025 10.8233 18.205 8.87167V8.8575C18.2 5.21833 15.3466 2.36833 11.705 2.3675V2.36833ZM14.8608 13.1783C13.9158 13.9783 10.8091 16.0158 9.21748 17.0475V14.3917C9.21748 14.0467 8.93831 13.7667 8.59248 13.7667H8.26248C5.21248 13.7667 2.99748 11.7033 2.99748 8.86167C2.99748 5.91667 5.30414 3.61 8.24748 3.61L11.7033 3.61833H11.705C14.6483 3.61833 16.955 5.92333 16.9566 8.865C16.9541 10.4567 16.1716 12.0683 14.8616 13.1783H14.8608Z" fill="#6E767D"/>
</svg>
