<svg width="20" height="21" viewBox="0 0 20 21" fill="none" xmlns="http://www.w3.org/2000/svg">
<path d="M19.8083 13.5583C19.565 13.3142 19.1692 13.3142 18.925 13.5583L17.075 15.4083V6.87501C17.075 5.15167 15.6725 3.75 13.95 3.75H9.075C8.73 3.75 8.45 4.03 8.45 4.375C8.45 4.72 8.73 5 9.075 5H13.95C14.9833 5 15.825 5.84167 15.825 6.87501V15.4083L13.975 13.5583C13.7308 13.3142 13.335 13.3142 13.0917 13.5583C12.8483 13.8025 12.8467 14.1983 13.0917 14.4417L16.0083 17.3583C16.1292 17.4808 16.2892 17.5417 16.45 17.5417C16.6108 17.5417 16.7692 17.4817 16.8917 17.3583L19.8083 14.4417C20.0533 14.1983 20.0533 13.8025 19.8083 13.5583ZM10.925 16.2917H6.05C5.01667 16.2917 4.175 15.45 4.175 14.4167V5.88334L6.025 7.73334C6.14833 7.85584 6.30833 7.91667 6.46833 7.91667C6.62833 7.91667 6.78833 7.85584 6.91 7.73334C7.15417 7.48917 7.15417 7.09334 6.91 6.85L3.99333 3.93334C3.74917 3.68834 3.35333 3.68834 3.11 3.93334L0.193333 6.85C-0.0516675 7.09334 -0.0516675 7.48917 0.193333 7.73334C0.438332 7.97751 0.832499 7.97751 1.07667 7.73334L2.92667 5.88334V14.4167C2.92667 16.14 4.32917 17.5417 6.05167 17.5417H10.9267C11.2717 17.5417 11.5517 17.2617 11.5517 16.9167C11.5517 16.5717 11.2708 16.2917 10.9267 16.2917H10.925Z" fill="#6E767D"/>
</svg>
