<svg width="20" height="21" viewBox="0 0 20 21" fill="none" xmlns="http://www.w3.org/2000/svg">
<path d="M14.6083 6.72501L10.4416 2.55834C10.1975 2.31417 9.80164 2.31417 9.5583 2.55834L5.39164 6.72501C5.14664 6.96917 5.14664 7.36501 5.39164 7.60834C5.63664 7.85167 6.0308 7.85334 6.27497 7.60834L9.37497 4.50834V13C9.37497 13.345 9.65497 13.625 9.99997 13.625C10.345 13.625 10.625 13.345 10.625 13V4.50834L13.725 7.60834C13.8466 7.73084 14.0066 7.79167 14.1666 7.79167C14.3266 7.79167 14.4866 7.73167 14.6083 7.60834C14.8525 7.36417 14.8525 6.96917 14.6083 6.72501Z" fill="#6E767D"/>
<path d="M16.4233 18.7867H3.57663C2.52329 18.7867 1.66663 17.93 1.66663 16.8767V12.1667C1.66663 11.8217 1.94663 11.5417 2.29163 11.5417C2.63663 11.5417 2.91663 11.8217 2.91663 12.1667V16.8767C2.91663 17.2408 3.21246 17.5367 3.57663 17.5367H16.4233C16.7875 17.5367 17.0833 17.2408 17.0833 16.8767V12.1667C17.0833 11.8217 17.3633 11.5417 17.7083 11.5417C18.0533 11.5417 18.3333 11.8217 18.3333 12.1667V16.8767C18.3333 17.93 17.4766 18.7867 16.4233 18.7867Z" fill="#6E767D"/>
</svg>
