<svg width="18" height="17" viewBox="0 0 18 17" fill="none" xmlns="http://www.w3.org/2000/svg">
<path d="M10.705 0.368334L7.24831 0.360001H7.24664C3.60164 0.360001 0.746643 3.21583 0.746643 6.86167C0.746643 10.2767 3.40164 12.8667 6.96748 13.0033V16.1933C6.96748 16.2833 7.00414 16.4317 7.06748 16.5292C7.18581 16.7167 7.38748 16.8183 7.59414 16.8183C7.70914 16.8183 7.82498 16.7867 7.92914 16.72C8.14914 16.58 13.3233 13.27 14.6691 12.1317C16.2541 10.79 17.2025 8.82333 17.205 6.87167V6.8575C17.2 3.21833 14.3466 0.368334 10.705 0.3675V0.368334ZM13.8608 11.1783C12.9158 11.9783 9.80914 14.0158 8.21748 15.0475V12.3917C8.21748 12.0467 7.93831 11.7667 7.59248 11.7667H7.26248C4.21248 11.7667 1.99748 9.70333 1.99748 6.86167C1.99748 3.91667 4.30414 1.61 7.24748 1.61L10.7033 1.61833H10.705C13.6483 1.61833 15.955 3.92333 15.9566 6.865C15.9541 8.45667 15.1716 10.0683 13.8616 11.1783H13.8608Z" fill="#6E767D"/>
</svg>
